<svg xmlns="http://www.w3.org/2000/svg" viewBox="0 0 210 297" xmlns:v="https://vecta.io/nano"><path d="M102.1 107.72c-1.25 0-2.2.1-3.55.43-2.72.66-4.98 1.92-6.94 3.86-.65.64-1.6 1.75-1.6 1.87s.49.32 1.27.53c.44.12.95.17 1.72.17 2.13 0 3.56-.39 6.97-1.92 4.66-2.09 6.49-2.65 8.72-2.67.47 0 .93-.04 1.02-.07.15-.06.12-.1-.24-.31-1.82-1.07-4.39-1.77-6.81-1.87h-.56zm6.96 4.97c-1.18 0-1.72.04-2.29.16-1.21.26-2.73.81-4.26 1.52-4.31 2.02-6.08 2.61-8.53 2.86-1.88.19-3.47-.08-5.39-.92-.18-.08-.57.65-.99 1.85-.75 2.15-.99 4.38-.75 6.82.09.92.43 2.59.56 2.72.1.1 1.44-.17 2.43-.5 1.23-.41 2.19-.88 3.19-1.56 1.34-.91 2.45-1.88 6-5.2 1.67-1.57 3.29-2.93 4.17-3.49 2.59-1.67 5.33-2.16 7.17-1.3 1.54.72 2.2 2.37 1.49 3.75-.29.57-.58.83-1.41 1.28-.58.31-.7.4-.64.56.03.07.1.11.14.17 1.48 1.87.95 4.57.96 4.99.02 1.04-.1 1.68-.81 1.87-.46.12-.82.01-1.4-.45-.92-.73-1.21-.82-1.9-.57-.55.19-.83-.01-.84-.58 0-.56.55-1.05 1.18-1.05.17 0 .37-.07.46-.15.14-.14.14-.16-.09-.35-.52-.45-1.44-.2-2.94.8-1.65 1.1-2.94 2.51-3.66 4-.42.87-.5 1.37-.29 1.91.34.9 1.11.64 1.11-.38 0-.76.65-1.63 1.92-2.59l1.64-1.11c.01.02.07.16.14.32.06.16.39.53.72.82.55.49.61.57.61.87 0 .18-.05.37-.11.42s-.79.1-1.68.12l-1.57.03-.21.25c-.26.3-.26.34-.05.6.16.2.2.2 1.5.18 1.56-.03 1.69.01 1.69.51 0 .45-.16.59-.73.67-.7.09-1.04.31-1.04.67 0 .04.19.2.42.34.52.32.73.66.73 1.2 0 .49-.15.81-.56 1.17-.44.38-.84.49-1.68.45a3.08 3.08 0 0 1-1.31-.31c-3.02-1.42-4.59-3.99-3.99-6.56.34-1.45 1.75-3.82 3.01-5.07 1.19-1.18 1.99-1.43 3.67-1.14.93.16 1.38.11 2.01-.21.56-.29.87-.6 1.47-1.52.45-.68.67-.94.98-1.11.22-.13.53-.36.69-.51.25-.23.29-.34.29-.66 0-.55-.23-.86-.93-1.24-.29-.16-.49-.19-1.15-.19-.91 0-1.74.22-2.73.72-1.45.73-2.35 1.48-6.36 5.26l-4.33 3.77c-1.45 1.1-3.47 2.04-5.51 2.59l-.84.26c-.06.06.83 1.39 1.38 2.08 2.03 2.52 4.02 4.02 6.84 5.14.95.38 2.68.83 3.59.93 1.06.12 2.97.11 3.89-.03 4.42-.67 8.12-3.01 10.67-6.77 1.16-1.72 2.08-4.28 2.37-6.62.17-1.39.06-4.03-.21-5.18-.62-2.59-1.4-4.09-2.85-5.47-.8-.76-1.73-1.29-2.82-1.6-.61-.18-.9-.2-2.24-.2z"/></svg>