<?xml version="1.0" encoding="UTF-8" standalone="no"?>
<svg
   version="1.1"
   viewBox="0 0 20 20"
   id="svg1"
   sodipodi:docname="quasi2.svg"
   inkscape:version="1.3.2 (091e20e, 2023-11-25, custom)"
   xmlns:inkscape="http://www.inkscape.org/namespaces/inkscape"
   xmlns:sodipodi="http://sodipodi.sourceforge.net/DTD/sodipodi-0.dtd"
   xmlns="http://www.w3.org/2000/svg"
   xmlns:svg="http://www.w3.org/2000/svg">
  <defs
     id="defs1" />
  <sodipodi:namedview
     id="namedview1"
     pagecolor="#ffffff"
     bordercolor="#111111"
     borderopacity="1"
     inkscape:showpageshadow="0"
     inkscape:pageopacity="0"
     inkscape:pagecheckerboard="1"
     inkscape:deskcolor="#d1d1d1"
     showgrid="false"
     inkscape:zoom="42.703611"
     inkscape:cx="10.010863"
     inkscape:cy="10.010863"
     inkscape:window-width="1920"
     inkscape:window-height="1111"
     inkscape:window-x="-9"
     inkscape:window-y="-9"
     inkscape:window-maximized="1"
     inkscape:current-layer="svg1" />
  <path
     d="M 7.7302,0.27775 C 5.4313616,0.7913283 3.563809,2.1675248 2.1303,3.97895 7.7540432,5.8495573 10.391271,1.1938303 14.37917,1.4663 14.686643,1.4873078 14.98899,1.440463 15.04801,1.421085 15.14637,1.382329 15.1267,1.356492 14.89064,1.220845 11.755674,-0.59475062 8.2414916,0.1546305 7.7302,0.27775 Z m 5.39,3.03585 C 12.3473,3.55738 11.3301,3.8368 10.3268,4.29541 6.6347871,5.9999385 4.2264317,6.8532871 1.1992,5.54855 0.23674843,7.3684522 -0.26392591,9.9145824 0.42544,12.90565 3.6708686,13.191301 8.351348,7.4836448 10.77934,5.96189 14.665517,3.4935282 17.433411,5.676778 16.45787,7.54438 16.26771,7.91256 16.07755,8.0805 15.5333,8.37117 c -0.38032,0.20024 -0.45901,0.25837 -0.41966,0.36172 0.01967,0.045215 0.06557,0.071052 0.0918,0.10981 0.97047,1.2079 0.62294,2.9519 0.62949,3.2232 0.01311,0.67177 -0.06557,1.0852 -0.53114,1.2079 -0.30163,0.07751 -0.53769,0.0065 -0.91801,-0.29067 -0.60326,-0.47153 -0.79342,-0.52966 -1.2459,-0.36818 -0.36065,0.12273 -0.54425,-0.0065 -0.55081,-0.37464 0,-0.36172 0.36065,-0.67823 0.77375,-0.67823 0.472181,0 0.411666,-0.382803 0.0185,-0.404246 -0.60694,-0.0331 -1.848298,0.9128 -2.795632,1.966942 -0.8634303,0.960778 -1.4567156,2.020106 -1.2875938,2.448474 0.22295,0.58134 0.5173248,0.4134 0.5173248,-0.24545 0,-0.49091 0.309261,-1.228338 1.142041,-1.848438 0.60326,-0.44569 1.172659,-0.567382 1.192359,-0.541542 0.167018,0.586775 0.96391,0.853377 0.96391,1.29832 0,0.11627 -0.03279,0.354783 -0.07213,0.387073 -0.07053,0.05791 -0.901844,0.07375 -2.1311,0.09689 -0.299496,0.101797 -0.255487,0.361499 -0.17049,0.433257 0.240281,0.202858 2.09178,-0.422253 2.09178,0.445693 0,0.724407 -1.16063,0.231067 -1.16063,0.86554 0,0.02584 0.12459,0.12919 0.2754,0.21962 0.856954,0.51948 0.625357,1.897319 -0.99012,1.82153 -0.37376,-0.01938 -0.55081,-0.06459 -0.859,-0.20024 -1.9803,-0.91722 -3.0098,-2.5773 -2.6163,-4.2373 0.22295,-0.9366 1.1475,-2.4675 1.9737,-3.2749 0.78031,-0.7622 1.3049,-0.92368 2.4065,-0.73636 1.146992,0.194388 1.655139,-0.1707631 2.28191,-1.11746 0.86451,-1.2869 1.2852,-0.76343 1.2852,-1.4727 0,-0.8827245 -1.3993,-1.3316888 -3.154,-0.45861 -0.9508,0.47153 -1.5409,0.95598 -4.1704,3.3976 -1.318,1.2273 -1.9868,1.8021 -2.8393,2.4352 -0.9508,0.71052 -2.2754,1.3177 -3.613,1.673 -0.28852,0.07751 -0.53769,0.14856 -0.55081,0.16794 -0.18087601,0.178196 3.8880699,6.205259 10.2948,5.24494 6.915425,-1.032601 9.450316,-7.642773 8.413,-11.995 -0.40654,-1.673 -0.918,-2.6419 -1.8688,-3.5332 -0.52458,-0.49091 -1.1412,-0.8111 -1.8491,-1.0335 C 15.1007,3.0541 14.11054,3.00117 13.12044,3.313476 Z"
     stroke-width="0.6"
     id="path1"
     sodipodi:nodetypes="cc" />
</svg>
